<svg width="32" height="32" viewBox="0 0 32 32" fill="none" xmlns="http://www.w3.org/2000/svg">
<path d="M16.3963 31.0143C24.4696 31.0143 31.0144 24.4695 31.0144 16.396C31.0144 8.32264 24.4696 1.77783 16.3963 1.77783C8.32282 1.77783 1.77802 8.32264 1.77802 16.396C1.77802 24.4695 8.32282 31.0143 16.3963 31.0143Z" stroke="#0D8570" stroke-width="1.44481" stroke-linecap="round" stroke-linejoin="round"/>
<path d="M24.4767 12.4302C23.3997 12.4302 22.3668 12.858 21.6053 13.6195C20.8439 14.3811 20.416 15.4139 20.416 16.4908C20.416 17.5677 20.8439 18.6005 21.6053 19.3621C22.3668 20.1236 23.3997 20.5515 24.4767 20.5515" stroke="#0D8570" stroke-width="1.44481" stroke-linecap="round" stroke-linejoin="round"/>
<path d="M8.31577 20.4838C9.3927 20.4838 10.4255 20.056 11.187 19.2945C11.9486 18.533 12.3764 17.5001 12.3764 16.4231C12.3764 15.3462 11.9486 14.3134 11.187 13.5518C10.4255 12.7904 9.3927 12.3625 8.31577 12.3625" stroke="#0D8570" stroke-width="1.44481" stroke-linecap="round" stroke-linejoin="round"/>
<path d="M16.3961 20.362C18.6239 20.362 20.4297 18.5561 20.4297 16.3285C20.4297 14.1008 18.6239 12.2949 16.3961 12.2949C14.1685 12.2949 12.3626 14.1008 12.3626 16.3285C12.3626 18.5561 14.1685 20.362 16.3961 20.362Z" stroke="#0D8570" stroke-width="1.44481" stroke-linecap="round" stroke-linejoin="round"/>
</svg>
