<svg width="162" height="22" viewBox="0 0 162 22" fill="none" xmlns="http://www.w3.org/2000/svg">
<path d="M43.1505 18.7038C41.5675 18.6985 40.0162 18.3198 38.6635 17.6085C37.3108 16.8972 36.208 15.8803 35.4738 14.6673C35.0849 15.738 34.526 16.7568 33.8133 17.6947C34.9323 18.9069 36.3521 19.886 37.9677 20.5597C39.5832 21.2334 41.3531 21.5843 43.1466 21.5865C43.5767 21.5686 43.9822 21.4082 44.2793 21.1386C44.5763 20.869 44.742 20.5109 44.742 20.1384C44.742 19.766 44.5763 19.4079 44.2793 19.1383C43.9822 18.8687 43.5767 18.7083 43.1466 18.6903L43.1505 18.7038ZM34.9371 8.57213C35.084 8.20959 35.2634 7.85756 35.4738 7.51927C36.2077 6.30596 37.3104 5.28885 38.6631 4.57755C40.0159 3.86625 41.5674 3.48772 43.1505 3.48275C43.5805 3.46481 43.9861 3.30442 44.2832 3.03481C44.5802 2.7652 44.7459 2.40707 44.7459 2.03465C44.7459 1.66223 44.5802 1.30409 44.2832 1.03448C43.9861 0.764874 43.5805 0.604478 43.1505 0.586544C41.3566 0.588723 39.5863 0.939962 37.9707 1.61424C36.355 2.28852 34.9355 3.26857 33.8171 4.48179C33.6305 4.68025 33.4555 4.8888 33.2844 5.09736C33.1133 5.30591 32.9421 5.54474 32.7866 5.77011C31.6978 7.38872 31.1273 9.22904 31.1338 11.1017C31.132 12.3505 30.7783 13.5802 30.1033 14.6841C29.3692 15.8962 28.2656 16.9115 26.912 17.6199C25.5585 18.3283 24.0067 18.7028 22.4246 18.7028C20.8426 18.7028 19.2908 18.3283 17.9372 17.6199C16.5837 16.9115 15.4801 15.8962 14.746 14.6841C14.3587 15.7554 13.7998 16.7744 13.0855 17.7115C14.2042 18.9236 15.6241 19.9022 17.2398 20.5748C18.8556 21.2474 20.6257 21.5966 22.4188 21.5966C24.2119 21.5966 25.982 21.2474 27.5978 20.5748C29.2135 19.9022 30.6334 18.9236 31.7521 17.7115C31.9388 17.513 32.1138 17.3045 32.281 17.0926C32.4483 16.8806 32.6233 16.6485 32.7788 16.4198C33.8686 14.8086 34.4418 12.9751 34.4394 11.1084C34.4385 10.2472 34.6055 9.39204 34.9333 8.57886L34.9371 8.57213ZM1.68324 3.4962C3.26389 3.50123 4.81314 3.87834 6.16485 4.58708C7.51655 5.29581 8.61971 6.30945 9.35602 7.51927C9.74253 6.44773 10.3015 5.42859 11.0166 4.49188C9.89787 3.27928 8.47814 2.29987 6.86253 1.62618C5.24691 0.952493 3.4768 0.601775 1.68324 0.599999C1.25318 0.617933 0.847595 0.778329 0.550564 1.04794C0.253533 1.31754 0.0878427 1.67568 0.0878427 2.0481C0.0878427 2.42052 0.253533 2.77866 0.550564 3.04827C0.847595 3.31787 1.25318 3.47827 1.68324 3.4962ZM14.2055 8.57213C14.3526 8.21024 14.5307 7.85831 14.7382 7.51927C15.4714 6.30615 16.5747 5.28988 17.9283 4.58075C19.282 3.87162 20.8343 3.49671 22.4169 3.49671C23.9994 3.49671 25.5518 3.87162 26.9054 4.58075C28.2591 5.28988 29.3623 6.30615 30.0955 7.51927C30.4803 6.44717 31.0394 5.42784 31.756 4.49188C30.6382 3.27866 29.2185 2.29898 27.6027 1.62565C25.9868 0.952314 24.2163 0.602652 22.4227 0.602652C20.6291 0.602652 18.8586 0.952314 17.2427 1.62565C15.6269 2.29898 14.2072 3.27866 13.0894 4.49188C12.9027 4.69034 12.7277 4.89889 12.5566 5.10745C12.3855 5.316 12.2182 5.55483 12.0627 5.7802C10.973 7.39266 10.3998 9.22721 10.4021 11.095C10.4033 11.9554 10.2349 12.8096 9.90436 13.6211C9.75497 13.9877 9.5716 14.3431 9.35602 14.6841C8.62115 15.8967 7.51821 16.9132 6.16568 17.6244C4.81315 18.3355 3.26217 18.7145 1.67935 18.7206C1.24929 18.7385 0.843706 18.8989 0.546675 19.1686C0.249644 19.4382 0.0839539 19.7963 0.0839539 20.1687C0.0839539 20.5411 0.249644 20.8993 0.546675 21.1689C0.843706 21.4385 1.24929 21.5989 1.67935 21.6168C3.47281 21.6146 5.24274 21.2636 6.85827 20.59C8.4738 19.9163 9.8936 18.9372 11.0127 17.7249C11.1994 17.5265 11.3744 17.3179 11.5455 17.106C11.7166 16.8941 11.8838 16.662 12.0432 16.4333C13.1301 14.8211 13.7018 12.9881 13.6999 11.1219C13.6984 10.2603 13.8667 9.40489 14.1977 8.59231" fill="#0B8470"/>
<path d="M144.301 19.2151C144.306 19.3374 144.365 19.4536 144.465 19.5398C144.566 19.6261 144.701 19.6759 144.842 19.6793H147.413C147.483 19.6797 147.554 19.6681 147.619 19.6449C147.685 19.6218 147.744 19.5877 147.795 19.5445C147.845 19.5014 147.885 19.45 147.912 19.3935C147.939 19.337 147.953 19.2763 147.953 19.2151V8.67304H147.98L159.83 19.9248H160.51C160.645 19.9215 160.772 19.8741 160.868 19.7923C160.963 19.7104 161.019 19.6003 161.024 19.4842V2.98827C161.02 2.8659 160.962 2.74941 160.862 2.66254C160.763 2.57566 160.628 2.52494 160.487 2.52071H157.881C157.738 2.52071 157.601 2.56997 157.499 2.65765C157.398 2.74534 157.341 2.86427 157.341 2.98827V13.1132H157.314L145.53 2.28188H144.823C144.688 2.28428 144.559 2.33072 144.463 2.41186C144.366 2.49299 144.308 2.6028 144.301 2.71917V19.2151ZM125.654 19.2151C125.654 19.3382 125.711 19.4563 125.811 19.5433C125.912 19.6304 126.049 19.6793 126.191 19.6793H137.69C137.833 19.6793 137.969 19.6304 138.07 19.5433C138.17 19.4563 138.227 19.3382 138.227 19.2151V17.1968C138.223 17.0761 138.165 16.9614 138.064 16.8773C137.964 16.7931 137.83 16.746 137.69 16.7461H129.314V12.4472H136.314C136.456 12.4472 136.593 12.3983 136.693 12.3112C136.794 12.2242 136.85 12.1061 136.85 11.983V9.94791C136.845 9.82638 136.786 9.71118 136.687 9.62517C136.587 9.53917 136.454 9.48867 136.314 9.48371H129.314V5.44719H137.69C137.833 5.44719 137.969 5.39828 138.07 5.31122C138.17 5.22417 138.227 5.1061 138.227 4.98299V2.96473C138.221 2.84514 138.162 2.73219 138.062 2.64946C137.962 2.56672 137.829 2.52059 137.69 2.52071H126.171C126.029 2.52071 125.893 2.56961 125.792 2.65667C125.691 2.74372 125.635 2.86179 125.635 2.98491L125.654 19.2151ZM111.623 19.6557C111.662 19.7373 111.728 19.8068 111.814 19.8548C111.899 19.9029 112 19.9273 112.101 19.9248H112.385C112.488 19.9276 112.589 19.9033 112.675 19.8552C112.761 19.8071 112.828 19.7376 112.868 19.6557L121.656 3.17328C121.7 3.10453 121.72 3.02699 121.717 2.94887C121.713 2.87075 121.685 2.79495 121.635 2.72947C121.586 2.664 121.517 2.61128 121.436 2.57691C121.355 2.54253 121.264 2.52776 121.174 2.53416H118.246C118.144 2.53399 118.043 2.55968 117.958 2.60809C117.872 2.65649 117.805 2.7255 117.764 2.80663L112.319 13.3453H112.121L106.676 2.80663C106.636 2.7255 106.568 2.65649 106.482 2.60809C106.397 2.55968 106.297 2.53399 106.194 2.53416H103.301C103.211 2.52776 103.12 2.54253 103.039 2.57691C102.958 2.61128 102.889 2.664 102.84 2.72947C102.79 2.79495 102.762 2.87075 102.759 2.94887C102.755 3.02699 102.776 3.10453 102.819 3.17328L111.623 19.6557ZM91.1676 13.823L93.9442 8.44094H94.0298L96.8648 13.823H91.1676ZM85.1009 19.6793H87.5665C87.7451 19.6827 87.9205 19.6375 88.0677 19.5499C88.215 19.4624 88.3267 19.337 88.387 19.1915L89.7753 16.5409H98.2531L99.6415 19.1915C99.6964 19.34 99.8067 19.4685 99.9553 19.5568C100.104 19.6451 100.282 19.6882 100.462 19.6793H102.928C103.018 19.6865 103.108 19.6723 103.189 19.6384C103.271 19.6045 103.34 19.5521 103.39 19.4867C103.439 19.4214 103.467 19.3456 103.471 19.2676C103.474 19.1895 103.453 19.112 103.41 19.0435L94.6792 2.56107C94.6428 2.47745 94.5763 2.40617 94.4894 2.35772C94.4026 2.30927 94.3001 2.28623 94.197 2.29197H93.917C93.8145 2.28878 93.7132 2.31287 93.627 2.36099C93.5408 2.40911 93.4737 2.47894 93.4348 2.56107L84.6187 19.0435C84.5752 19.112 84.5542 19.1895 84.5578 19.2676C84.5613 19.3456 84.5894 19.4214 84.6389 19.4867C84.6885 19.5521 84.7577 19.6045 84.839 19.6384C84.9204 19.6723 85.0109 19.6865 85.1009 19.6793ZM58.0303 19.1175C58.0089 19.1867 58.007 19.2593 58.0248 19.3293C58.0425 19.3992 58.0794 19.4645 58.1324 19.5195C58.1854 19.5746 58.2528 19.6178 58.3291 19.6456C58.4054 19.6734 58.4883 19.685 58.5709 19.6793H61.122C61.2415 19.6746 61.356 19.6363 61.448 19.5701C61.54 19.5039 61.6044 19.4135 61.6314 19.3126L63.2764 10.0185H63.362L68.3787 19.6524C68.4176 19.7345 68.4847 19.8043 68.5709 19.8525C68.6571 19.9006 68.7583 19.9247 68.8609 19.9215H69.3703C69.4733 19.9267 69.5756 19.9034 69.6623 19.855C69.7489 19.8067 69.8156 19.7357 69.8526 19.6524L74.8109 10.0185H74.8964L76.5687 19.3093C76.6061 19.4095 76.677 19.4979 76.7726 19.5631C76.8681 19.6284 76.9839 19.6677 77.1053 19.6759H79.6876C79.7694 19.6827 79.8519 19.6716 79.9275 19.6436C80.003 19.6156 80.0692 19.5716 80.12 19.5156C80.1707 19.4597 80.2044 19.3936 80.2178 19.3234C80.2313 19.2533 80.2241 19.1813 80.197 19.1142L76.8526 2.63171C76.8343 2.52858 76.7716 2.43524 76.6772 2.37037C76.5827 2.30549 76.4634 2.27389 76.3431 2.28188H75.8881C75.7888 2.27506 75.6894 2.29459 75.6033 2.33786C75.5171 2.38113 75.4483 2.44609 75.4059 2.52407L69.1837 14.0954H69.0981L62.8759 2.52407C62.8292 2.44389 62.7556 2.37783 62.6646 2.33459C62.5737 2.29135 62.4697 2.27298 62.3664 2.28188H61.9153C61.7921 2.27427 61.6703 2.30818 61.5753 2.37653C61.4803 2.44487 61.4196 2.54234 61.4059 2.64853L58.0303 19.1175Z" fill="#0B8470"/>
</svg>
