<svg width="196" height="30" viewBox="0 0 196 30" fill="none" xmlns="http://www.w3.org/2000/svg">
<path d="M172.413 3.85739C172.413 1.82349 173.011 1.12216 174.008 1.12216C175.004 1.12216 175.802 1.54296 176.732 3.85739L182.38 17.3934V25.9497C182.38 27.9836 181.582 28.5447 179.39 28.8252V29.3863H189.821V28.8252C187.562 28.5447 186.831 27.9135 186.831 25.9497V17.3934L192.279 4.34833C193.342 1.82349 194.406 1.26242 196 0.981882V0.420807H188.359V0.981882C190.95 1.26242 191.881 2.0339 191.15 3.85739L186.366 15.4296L181.45 3.57686C180.786 1.96377 181.183 1.47282 184.041 1.05202V0.490941H167.63V1.05202C170.221 1.47282 171.018 1.96377 171.018 3.92753V19.7779L158.992 0.490941H153.079V1.05202C155.006 1.33256 155.604 1.96377 155.604 3.92753V26.0198C155.604 28.0537 155.072 28.7551 154.408 28.7551C153.81 28.7551 153.478 28.4746 152.614 26.0198L143.711 0.350672H143.18L134.609 24.8977C133.679 27.633 132.217 28.5447 130.756 28.8954V29.4565H138.596V28.8954C135.871 28.6148 135.008 27.4927 135.606 25.6692L137.532 20.0584H145.638L147.498 25.3186C148.296 27.7031 147.83 28.4044 145.506 28.8252V29.3863H160.388V28.8252C157.797 28.4044 156.999 27.9135 156.999 25.9497V6.17183L171.55 29.4565H172.413V3.85739ZM67.5038 14.8685C67.5038 5.8913 71.5567 1.19228 76.2739 1.19228C79.0644 1.19228 80.8583 1.82349 81.9213 3.01578C82.7187 3.85739 83.3167 5.04968 83.981 6.9433H84.5126V0.911748C81.7884 0.350672 79.3302 0 76.8719 0C69.7627 0 62.3878 4.83928 62.3878 14.8685C62.3878 24.8977 69.7627 29.737 76.4068 29.737C79.3302 29.737 81.9213 29.2461 84.3797 28.4746L85.177 22.7937L84.7119 22.6534C84.1139 23.8457 83.383 24.8977 82.5858 25.8095C80.8583 27.633 78.5329 28.6148 76.2075 28.6148C71.6895 28.5447 67.5038 23.9859 67.5038 14.8685ZM126.437 15.7101C125.839 15.7101 125.041 15.6399 124.244 15.4998V1.47282H126.437C130.091 1.47282 131.686 3.50672 131.686 8.5564C131.686 13.6762 130.024 15.7101 126.437 15.7101ZM41.0603 0.420807V7.36411H41.5919C42.3891 2.94565 44.0502 1.54296 46.8407 1.54296H48.1695V25.9497C48.1695 27.9836 47.3722 28.5447 45.1797 28.8252V29.3863H55.6109V28.8252C53.3519 28.5447 52.621 27.9135 52.621 25.9497V1.47282H53.9498C56.7403 1.47282 58.4013 2.87551 59.1987 7.29398H59.7302V0.350672H41.0603V0.420807ZM32.7552 29.737C37.2732 29.737 42.057 27.0018 42.057 21.391C42.057 18.0947 40.3959 15.3595 37.4726 13.6762L32.2902 10.6604C29.5661 9.04734 28.7688 7.57451 28.7688 5.47049C28.7688 3.08591 30.4298 1.19228 33.5526 1.19228C35.0807 1.19228 36.2102 1.61309 37.1403 2.52484C37.9377 3.36646 38.7349 4.76914 39.4658 7.29398H39.9309V0.911748C38.0705 0.350672 36.1438 0 33.8848 0C29.4332 0 26.1112 2.94565 26.1112 7.92519C26.1112 11.0813 27.7722 13.9567 30.4962 15.6399L35.28 18.4453C38.0041 20.0584 38.8678 21.6014 38.8678 23.9158C38.8678 26.6511 36.2102 28.6148 33.2868 28.6148C31.36 28.6148 29.7654 27.9135 28.6359 26.7212C27.9051 25.9497 27.1078 24.7574 26.5762 23.2145H29.699V22.6534C28.8352 22.443 28.3038 22.3027 27.5729 20.4792L21.4603 5.11981H20.9288L14.9491 20.1286C14.1519 22.1624 13.6203 22.5131 12.6902 22.6534V23.2145H18.0054V22.6534C16.0787 22.443 15.5471 21.4612 16.0122 20.1987L16.9423 17.8141H22.3241L23.52 20.7598C24.0516 22.0923 23.2542 22.443 21.3274 22.5833V23.1444H25.5797V28.685C27.7058 29.3162 30.4298 29.737 32.7552 29.737ZM100.259 29.4565L108.166 6.24196L108.763 26.0198C108.83 27.9836 108.099 28.5447 105.84 28.8252V29.3863H127.632V28.8252C125.041 28.4044 124.244 27.9135 124.244 25.9497V16.6219C125.108 16.7621 125.971 16.8323 126.636 16.8323C131.884 16.8323 136.402 14.7984 136.402 8.62653C136.402 2.4547 131.884 0.420807 126.636 0.420807H117.268V0.981882C119.194 1.26242 119.792 1.89363 119.792 3.85739V25.9497C119.792 27.9836 118.996 28.8252 116.802 28.8252H116.737C114.411 28.8252 113.414 27.9136 113.348 26.0198L112.55 3.92753C112.484 1.89363 113.149 1.26242 115.208 0.981882V0.420807H108.763L101.721 21.2508L94.678 0.420807H87.7681V0.981882C89.8278 1.26242 90.4922 1.96377 90.4258 3.92753L89.6949 25.1081C89.6284 27.2122 88.5654 28.4746 86.6387 28.8252V29.3863H93.9471V28.8252C92.0868 28.5447 91.0238 27.2823 91.0902 25.1081L91.6881 5.82116L99.7277 29.3863L100.259 29.4565ZM79.0644 23.3548C82.5858 23.3548 87.1038 20.0584 87.1038 14.8685C87.1038 9.74869 82.6522 6.38223 79.0644 6.38223C75.543 6.38223 71.0251 9.67855 71.0251 14.8685C71.0251 19.9883 75.4767 23.3548 79.0644 23.3548ZM79.0644 7.57451C81.3234 7.57451 82.8515 9.53828 82.8515 14.8685C82.8515 20.2688 81.257 22.1624 79.0644 22.1624C76.8054 22.1624 75.2773 20.1987 75.2773 14.8685C75.2773 9.46814 76.8054 7.57451 79.0644 7.57451ZM145.306 18.8662H137.931L141.586 8.20572L145.306 18.8662ZM21.9919 16.692H17.4739L19.7329 10.8709L21.9919 16.692ZM13.3546 18.1648H13.8861V9.46814H13.3546C12.4909 12.5541 11.6271 13.2554 10.0326 13.2554H6.97627V1.47282H11.8264C14.617 1.47282 16.278 2.87551 17.0752 7.29398H17.6068V0.350672H0V0.911748C1.92678 1.19228 2.52474 1.82349 2.52474 3.78726V25.8797C2.52474 27.9136 1.92678 28.4746 0 28.7551V29.3162H10.3648V28.7551C7.77356 28.3343 6.97627 27.8434 6.97627 25.8797V14.3074H10.0326C11.5607 14.3776 12.4909 15.0789 13.3546 18.1648Z" fill="#64726F"/>
</svg>
