<svg width="196" height="30" viewBox="0 0 196 30" fill="none" xmlns="http://www.w3.org/2000/svg">
<path d="M17.589 0.781036H20.5205V11.8619H28.0252V0.781036H30.2531V28.0932H28.0252V13.4227H20.5205V28.0932H17.589V0.781036ZM50.1287 28.1712H51.7703V6.24346L64.7274 28.5613V0.859051H63.1445V18.6509L52.6497 0.859051H50.1287V28.1712ZM67.4831 28.1712H79.5609L81.0853 24.0353C81.0853 24.0353 78.9746 26.2984 74.8705 26.2984C74.0497 26.2984 70.6491 26.2984 70.6491 26.2984V13.6568C70.6491 13.6568 71.9977 13.6568 73.6979 13.6568C75.3982 13.6568 76.1017 15.0613 76.1017 15.0613V11.0035C75.5154 11.7839 75.2809 12.018 73.6979 12.018C72.1735 12.018 70.6491 12.018 70.6491 12.018V2.41975C70.6491 2.41975 70.825 2.41975 72.4666 2.41975C74.8118 2.41975 76.0431 4.05849 76.0431 4.05849L74.9877 0.859051H67.4831V28.1712ZM171.551 28.1712H179.642L181.46 24.8937C181.46 24.8937 180.052 26.3764 176.476 26.3764C175.655 26.3764 174.483 26.3764 174.483 26.3764V13.5007C174.483 13.5007 176.066 13.5007 177.825 13.5007C179.525 13.5007 179.877 14.437 179.877 14.437V11.2376C179.408 11.8619 179.056 12.018 177.825 12.018C176.3 12.018 174.483 12.018 174.483 12.018V2.41975C174.483 2.41975 175.539 2.41975 177.239 2.41975C179.818 2.41975 180.99 4.05849 180.99 4.05849L179.936 0.859051H171.61L171.551 28.1712ZM33.0087 28.0932H41.0996L42.9171 24.8156C42.9171 24.8156 41.5101 26.2984 37.9336 26.2984C37.1128 26.2984 35.9401 26.2984 35.9401 26.2984V13.5007C35.9401 13.5007 37.5232 13.5007 39.2821 13.5007C40.9823 13.5007 41.3341 14.437 41.3341 14.437V11.1596C40.8651 11.7839 40.5133 11.94 39.2821 11.94C37.7577 11.94 35.9401 11.94 35.9401 11.94V2.34172C35.9401 2.34172 36.9955 2.34172 38.6958 2.34172C41.2755 2.34172 42.4481 3.98044 42.4481 3.98044L41.3927 0.781036H33.0673L33.0087 28.0932ZM9.26353 2.57583C9.26353 2.57583 10.0844 2.57583 11.8433 2.57583C14.5989 2.57583 15.8301 4.21453 15.8301 4.21453L14.7161 0.859051H9.32214H1.11395L0 4.21453C0 4.21453 1.23122 2.57583 3.98683 2.57583C5.80436 2.57583 5.863 2.57583 6.4493 2.57583V28.0932H9.3808L9.26353 2.57583ZM86.1861 28.4053L89.2935 19.4313L92.4595 28.3272L101.605 0.781036H99.7885L93.163 20.8359L90.9351 14.359L95.2737 0.781036H93.7493L90.1142 11.4718L86.3033 0.781036H83.2545L88.4726 16.6221L87.0656 20.8359L80.2645 0.781036H77.0985L86.1861 28.4053ZM118.55 14.7492C118.55 22.0844 122.888 29.4197 130.217 29.4197C137.546 29.4197 141.416 23.4111 141.416 13.9688C141.416 6.6336 137.135 0.000689546 130.041 0.000689546C123.181 -0.077345 118.55 6.47754 118.55 14.7492ZM129.924 1.48332C135.494 1.48332 138.367 8.66251 138.367 14.281C138.367 21.3042 136.08 27.4689 130.452 27.4689C124.295 27.4689 121.598 20.4458 121.598 14.0469C121.598 5.61918 126.054 1.48332 129.924 1.48332ZM143.819 28.1712H146.81V2.34172C146.81 2.34172 147.982 2.34172 148.158 2.34172C148.92 2.34172 150.797 2.96598 150.797 7.10182C150.797 11.4718 148.1 12.2521 148.1 12.2521V12.7983C149.389 12.7983 150.972 12.9544 150.972 20.7579C150.972 26.1423 152.379 28.4833 154.256 28.4833C156.132 28.4833 156.953 26.7665 157.07 26.5324L156.659 26.1423C156.483 26.5324 155.956 27.1567 155.253 27.1567C154.373 27.1567 153.376 25.2059 153.376 20.0555C153.376 14.8273 152.32 12.9544 149.389 12.3301C150.972 11.6278 153.376 10.5353 153.376 6.32147C153.376 2.73188 151.265 0.781036 148.744 0.781036C146.868 0.781036 143.937 0.781036 143.937 0.781036L143.819 28.1712ZM182.749 28.1712H185.739V2.34172C185.739 2.34172 186.912 2.34172 187.088 2.34172C187.85 2.34172 189.727 2.96598 189.727 7.10182C189.727 11.4718 187.03 12.2521 187.03 12.2521V12.7983C188.32 12.7983 189.902 12.9544 189.902 20.7579C189.902 26.1423 191.31 28.4833 193.185 28.4833C195.062 28.4833 195.882 26.7665 196 26.5324L195.589 26.1423C195.414 26.5324 194.886 27.1567 194.182 27.1567C193.303 27.1567 192.306 25.2059 192.306 20.0555C192.306 14.8273 191.251 12.9544 188.32 12.3301C189.902 11.6278 192.306 10.5353 192.306 6.32147C192.306 2.73188 190.195 0.781036 187.675 0.781036C185.798 0.781036 182.867 0.781036 182.867 0.781036L182.749 28.1712ZM166.744 19.1191C166.744 12.8764 165.747 9.98909 162.815 9.28677L168.502 0.859051H166.568L161.174 8.8966V0.859051H158.243L158.184 28.1712H161.174V10.1452H161.819C162.347 10.1452 163.519 11.0816 163.812 12.4082C164.223 14.0469 164.34 16.544 164.34 19.8214V20.9139C164.34 26.2984 165.747 28.6394 167.623 28.6394C169.499 28.6394 170.32 26.9227 170.438 26.6885L170.027 26.2984C169.851 26.6885 169.323 27.3128 168.62 27.3128C167.741 27.3128 166.744 25.3619 166.744 20.2117V19.1191ZM114.329 28.1712V14.0469L120.016 0.859051H118.139L112.687 13.4227L107.235 0.859051H105.358L111.045 14.0469V28.1712H114.329Z" fill="#64726F"/>
</svg>
