<svg width="196" height="30" viewBox="0 0 196 30" fill="none" xmlns="http://www.w3.org/2000/svg">
<path fill-rule="evenodd" clip-rule="evenodd" d="M109.876 0.141267C100.724 1.12598 96.5695 1.58961 96.4189 1.64301C96.244 1.70516 96.2453 2.28832 96.4207 2.44684C96.4939 2.51306 97.021 2.62982 97.5917 2.70629C99.5551 2.96932 100.11 3.26568 100.697 4.36496C101.187 5.28235 101.344 9.8295 101.224 19.6438L101.115 28.5084L101.945 28.615C106.495 29.1988 109.097 29.3731 113.253 29.372C117.609 29.3708 118.929 29.2629 121.585 28.6907C125.567 27.8327 128.9 26.1577 130.692 24.1135C131.398 23.3085 132.328 21.7134 132.668 20.7239C133.042 19.6357 132.99 16.2667 132.584 15.2543C130.943 11.1652 126.235 8.55276 120.179 8.37166C117.311 8.28584 114.61 8.55822 112.487 9.14724C112.11 9.25176 111.739 9.33728 111.662 9.33728C111.584 9.33728 111.521 7.23399 111.521 4.6633C111.521 0.984675 111.475 -0.00839957 111.304 5.33816e-05C111.185 0.00602017 110.543 0.0695665 109.876 0.141267ZM0.190486 0.577539C0.00779261 0.644069 -0.0268412 0.805868 0.0500458 1.23309C0.105979 1.54506 0.180789 1.81694 0.216288 1.83723C0.251615 1.85752 0.821341 1.91847 1.48233 1.97277C3.98047 2.17763 5.05481 2.56369 5.83476 3.53677C6.87862 4.83882 7.10046 6.7652 7.09821 14.5068C7.09577 23.577 6.78304 25.4865 5.11524 26.6197C4.46552 27.0611 3.8963 27.2138 2.03005 27.4478C1.1585 27.5571 0.345127 27.6942 0.222695 27.7526C0.100265 27.8109 0 28.053 0 28.2905C0 28.6157 0.0827749 28.7478 0.334908 28.8253C0.846797 28.9826 25.3196 28.9667 25.5943 28.8089C25.8776 28.6463 25.8578 27.8852 25.5669 27.7465C25.4375 27.6848 24.4931 27.5476 23.4684 27.4416C21.3075 27.2177 20.5088 26.9691 19.8375 26.3114C18.7539 25.2495 18.385 23.5117 18.2345 18.7598L18.1346 15.6024L18.5483 15.6051C20.1558 15.6157 24.155 15.8065 24.7809 15.9026C26.4417 16.1576 27.6442 17.0692 28.4571 18.6892L28.8791 19.5306L29.9521 19.5806C30.542 19.6082 31.0577 19.6119 31.0977 19.589C31.1377 19.566 31.1704 17.3842 31.1704 14.7405V9.93394H30.1525C29.5472 9.93394 29.064 9.98428 28.9598 10.0582C28.8636 10.1267 28.6155 10.54 28.4084 10.9767C27.7993 12.2618 26.7558 13.1263 25.2878 13.5623C24.6645 13.7473 22.1536 13.9077 19.8437 13.9102L18.1277 13.9118L18.2585 9.06381C18.3306 6.39744 18.4405 3.88015 18.5026 3.46994L18.6158 2.72409L23.2046 2.75332C28.2817 2.78565 29.1993 2.85178 30.7756 3.29909C33.2475 4.00039 35.217 5.42396 36.7217 7.59698C37.7568 9.09156 37.681 9.05634 39.2513 8.77213L40.1761 8.60467L40.0663 4.9683C40.0061 2.96824 39.9062 1.15283 39.8447 0.934055L39.7328 0.536269L20.0828 0.5127C8.83769 0.499176 0.329195 0.526921 0.190486 0.577539ZM49.3396 8.19186C42.2615 8.87665 37.1075 11.7 35.4822 15.7829C34.9906 17.018 34.855 19.6868 35.2153 21.0354C35.5733 22.376 36.5177 24.0121 37.5314 25.0482C39.0071 26.5565 41.853 27.994 44.7648 28.702C47.2804 29.3136 51.3419 29.5732 54.6817 29.3361C62.1237 28.8074 67.4839 25.8599 69.1971 21.3542C69.5996 20.2957 69.6205 17.122 69.2321 16.0499C67.579 11.486 63.1442 8.87008 55.9191 8.19713C53.9877 8.01723 51.1674 8.01494 49.3396 8.19186ZM77.1732 8.91335C70.3602 9.69853 69.7384 9.78694 69.5749 9.99309C69.2976 10.3427 69.5418 10.7168 70.0927 10.7866C73.1942 11.18 73.4851 11.3138 74.079 12.619C74.3985 13.321 74.5738 21.515 74.3227 24.0056C74.0475 26.7384 73.5402 27.2485 70.7805 27.5682L69.7005 27.6933L69.6489 28.2557L69.5972 28.818L70.1685 28.8766C70.4826 28.9089 75.2204 28.9226 80.6968 28.907L90.6539 28.8786V28.2854V27.6923L89.0956 27.5804C87.1395 27.44 86.7855 27.3764 86.1954 27.059C84.9268 26.3769 84.6289 24.8149 84.6153 18.7749C84.6041 13.8112 84.5229 14.0786 86.1711 13.6453C86.6895 13.509 87.6461 13.3522 88.2969 13.2967C90.1927 13.135 91.526 13.3094 95.0095 14.1744C95.1335 14.2052 95.5513 13.7216 96.1109 12.8994C97.6771 10.5989 98.7064 8.94756 98.7064 8.73553C98.7064 8.13457 94.5396 7.81555 92.1456 8.23313C89.704 8.65896 87.2832 9.85209 85.6378 11.4406C85.193 11.87 84.7857 12.2213 84.7321 12.2213C84.6789 12.2213 84.6833 11.7401 84.7422 11.1522C84.9247 9.32982 84.9307 8.10882 84.7578 8.08286C84.6673 8.06924 81.2541 8.44297 77.1732 8.91335ZM150.412 8.15457C142.655 8.80425 137.109 12.1853 135.923 16.9881C135.597 18.304 135.808 20.7893 136.346 21.9875C137.129 23.7306 138.56 25.2367 140.61 26.4762C142.774 27.7842 145.339 28.6379 148.635 29.1461C150.647 29.4563 155.467 29.4602 157.416 29.153C159.447 28.833 161.375 28.3735 162.606 27.9166C163.693 27.5126 166.762 25.8642 166.762 25.6848C166.76 25.4914 166.058 24.9503 165.808 24.9503C165.661 24.9503 164.939 25.1497 164.204 25.3934C162.277 26.0313 160.763 26.2432 158.132 26.2432C154.687 26.2432 152.583 25.7991 150.449 24.621C148.661 23.6346 147.727 22.6905 146.986 21.1217C146.61 20.3246 146.209 18.3097 146.378 18.0583C146.482 17.9024 147.267 17.8897 156.805 17.8897C165.958 17.8897 167.131 17.8724 167.222 17.7356C167.278 17.6509 167.237 17.0534 167.131 16.4079C166.576 13.053 164.48 10.664 160.885 9.29183C158.175 8.2571 154.261 7.83217 150.412 8.15457ZM180.89 8.1475C174.51 8.72559 170.278 11.0615 169.932 14.1959C169.682 16.4454 171.235 18.2719 174.381 19.4278C175.536 19.8521 175.768 19.9144 180.135 20.9699C184.862 22.1122 186.193 22.844 186.203 24.3039C186.211 25.4516 185.463 26.2941 183.944 26.8471C182.798 27.2648 181.973 27.3668 180.175 27.3137C178.861 27.275 178.416 27.2146 177.404 26.9386C175.222 26.3433 173.555 25.1568 171.866 22.9972C171.033 21.933 170.874 21.8615 169.801 22.0646L169.212 22.1766L169.293 24.7817C169.388 27.8214 169.447 28.1989 169.845 28.3214C170.309 28.4638 173.256 28.9063 175.335 29.1457C176.99 29.336 177.749 29.363 181.135 29.3512C184.433 29.34 185.238 29.3071 186.372 29.1374C189.194 28.7152 191.118 28.1319 192.756 27.2014C194.713 26.0907 195.778 24.7184 195.964 23.0672C196.175 21.1929 195.476 19.8997 193.648 18.7798C192.366 17.9937 190.662 17.3919 187.469 16.5965C183.549 15.6197 182.048 15.1305 180.759 14.4091C179.422 13.66 179.131 13.2365 179.288 12.2623C179.405 11.5327 179.627 11.2151 180.42 10.6412C181.772 9.66366 184.289 9.45356 186.744 10.1132C188.815 10.6699 190.264 11.7287 191.712 13.7457C192.062 14.2326 192.446 14.6657 192.567 14.7082C192.686 14.7507 193.112 14.7216 193.512 14.6433L194.239 14.5009L194.177 12.6898C194.143 11.6936 194.071 10.4688 194.017 9.96778L193.919 9.05684L192.443 8.78675C191.629 8.63817 190.136 8.43183 189.124 8.3282C186.999 8.11081 182.407 8.00997 180.89 8.1475ZM53.5967 9.82088C54.5656 10.0737 55.9974 11.012 56.7031 11.8566C57.9392 13.3358 58.4998 15.1182 58.6515 18.0506C58.8292 21.487 58.2347 24.3127 57.0069 25.8677C55.3417 27.9765 51.9844 28.5403 49.5197 27.1249C48.0927 26.3054 47.082 24.8944 46.2878 22.6134C45.8307 21.2998 45.8372 15.6203 46.2977 14.1605C47.0447 11.792 48.3707 10.2925 50.1324 9.82416C51.0425 9.58219 52.6758 9.58059 53.5967 9.82088ZM154.047 10.0399C155.502 10.8481 156.398 12.7099 156.579 15.304L156.631 16.0499L154.38 16.1132C153.142 16.148 150.823 16.1815 149.227 16.1877L146.325 16.1991L146.43 15.6273C146.868 13.2559 148.191 11.163 149.822 10.2632C150.752 9.75037 151.314 9.621 152.434 9.66187C153.293 9.69309 153.517 9.74578 154.047 10.0399ZM117.079 11.041C119.126 11.6674 120.585 12.9593 121.501 14.956C121.9 15.8254 121.968 16.2021 122.041 17.9504C122.131 20.1415 121.975 21.1358 121.298 22.6897C120.176 25.2619 118.409 26.8883 116.049 27.5197C115.213 27.7433 114.848 27.7801 113.539 27.7732C112.488 27.7675 111.963 27.7247 111.869 27.6367C111.793 27.5662 111.684 26.8992 111.628 26.1547C111.449 23.8079 111.343 14.1284 111.478 12.5225L111.607 10.984L112.3 10.8644C112.681 10.7987 113.683 10.7414 114.527 10.7372C115.927 10.7303 116.15 10.7567 117.079 11.041Z" fill="#64726F"/>
</svg>
