<svg width="196" height="30" viewBox="0 0 196 30" fill="none" xmlns="http://www.w3.org/2000/svg">
<path d="M0 0H14.3692C17.1063 0 19.159 0.558573 20.6796 1.48953C22.3522 2.60667 23.2646 4.22032 23.2646 6.20636C23.2646 8.50271 22.1241 9.93018 19.8433 10.7991V10.9232C22.8845 11.73 24.633 13.9643 24.633 16.633C24.633 19.1777 23.4166 21.1637 21.4398 22.405C19.7672 23.398 17.6385 23.8324 14.7494 23.8324H0V0ZM12.9247 9.30954C14.4453 9.30954 15.5857 8.62684 15.5857 7.19938C15.5857 5.83398 14.4453 5.15128 12.8487 5.15128H7.90691V9.24748H12.9247V9.30954ZM13.609 18.557C15.3576 18.557 16.6501 17.6881 16.6501 16.1365C16.6501 14.4608 15.2816 13.7161 13.609 13.7161H7.98293V18.6191H13.609V18.557Z" fill="#64726F"/>
<path d="M25.9254 0H33.4522V23.8945H25.9254V0Z" fill="#64726F"/>
<path d="M34.9729 15.3918C34.9729 9.99227 39.2305 6.39258 45.8449 6.39258C52.4593 6.39258 56.6408 10.0544 56.6408 15.3918C56.6408 20.7914 52.4593 24.3911 45.8449 24.3911C39.2305 24.3911 34.9729 20.7914 34.9729 15.3918ZM49.1142 15.3918C49.1142 12.4128 47.9737 10.5509 45.6929 10.5509C43.412 10.5509 42.3476 12.4128 42.3476 15.3918C42.3476 18.3709 43.412 20.2949 45.6929 20.2949C47.9737 20.2328 49.1142 18.3709 49.1142 15.3918Z" fill="#64726F"/>
<path d="M57.4775 15.3918C57.4775 9.99227 61.7351 6.39258 68.3495 6.39258C74.9639 6.39258 79.0694 9.99227 79.0694 15.3918C79.0694 20.7914 74.8879 24.3911 68.2734 24.3911C61.7351 24.3911 57.4775 20.7914 57.4775 15.3918ZM71.6186 15.3918C71.6186 12.4128 70.4783 10.5509 68.1974 10.5509C65.9166 10.5509 64.8522 12.4128 64.8522 15.3918C64.8522 18.3709 65.9166 20.2949 68.1974 20.2949C70.4783 20.2328 71.6186 18.3709 71.6186 15.3918Z" fill="#64726F"/>
<path d="M80.5898 6.82659H87.5843V9.3712H87.7364C89.1049 7.38516 91.0056 6.33008 94.0468 6.33008C96.7077 6.33008 98.6844 7.38516 99.6728 9.24707H99.8249C101.497 7.01278 103.702 6.33008 106.287 6.33008C111.153 6.33008 113.206 9.24707 113.206 13.1571V23.8321H105.907V14.2122C105.907 12.4744 105.223 11.3573 103.398 11.3573C101.574 11.3573 100.661 12.7227 100.661 14.5846V23.8321H93.3625V14.2122C93.3625 12.4744 92.6782 11.3573 90.8536 11.3573C89.0289 11.3573 88.1166 12.7227 88.1166 14.5846V23.8321H80.5898V6.82659Z" fill="#64726F"/>
<path d="M122.405 21.5981H122.329V23.8324H115.334V0H122.632V8.56478H122.785C124.154 7.07525 126.054 6.26842 128.716 6.26842C133.961 6.26842 137.003 10.1164 137.003 15.2676C137.003 21.0396 133.733 24.391 128.259 24.391C125.978 24.391 123.621 23.5221 122.405 21.5981ZM129.475 15.2056C129.475 12.4748 128.259 10.6749 126.054 10.6749C123.773 10.6749 122.405 12.4748 122.405 15.2056C122.405 17.9364 123.85 19.7362 126.054 19.7362C128.259 19.7362 129.475 17.9984 129.475 15.2056Z" fill="#64726F"/>
<path d="M137.838 15.3293C137.838 9.99183 142.172 6.33008 148.406 6.33008C151.524 6.33008 153.881 7.13691 155.705 8.56437C158.138 10.4884 159.202 13.4674 159.126 16.943H145.138C145.442 19.0532 146.658 20.1703 148.863 20.1703C150.156 20.1703 151.296 19.6738 151.752 18.5567H158.823C157.606 22.4667 153.881 24.3906 148.635 24.3906C142.172 24.3286 137.838 20.7289 137.838 15.3293ZM145.138 13.5295H151.828C151.676 11.4814 150.308 10.4263 148.558 10.4263C146.506 10.3643 145.366 11.5435 145.138 13.5295Z" fill="#64726F"/>
<path d="M167.413 9.74396H167.565C169.086 7.38554 171.063 6.45459 173.571 6.45459C174.18 6.45459 174.56 6.51665 174.788 6.64078V11.8541H174.636C170.302 11.2334 167.793 12.9092 167.793 16.7571V23.8944H160.419V6.82697H167.413V9.74396Z" fill="#64726F"/>
<path d="M175.549 23.8946H182.619C182.923 24.6394 183.836 25.3221 185.584 25.3221C187.941 25.3221 188.777 24.1429 188.777 22.343V21.1018H188.626C187.485 22.2189 185.889 23.0257 183.608 23.0257C179.122 23.0257 175.169 20.2949 175.169 14.9575C175.169 10.0544 178.361 6.26855 183.227 6.26855C186.041 6.26855 187.713 7.19952 188.853 8.62697H189.005V6.76506H196V21.5362C196 24.267 194.86 26.3772 193.111 27.6184C191.286 28.9218 188.701 29.4803 185.736 29.4803C180.111 29.5424 176.233 27.6805 175.549 23.8946ZM189.081 14.7092C189.081 12.599 187.865 10.8613 185.736 10.8613C183.684 10.8613 182.391 12.3508 182.391 14.7092C182.391 17.0056 183.684 18.6192 185.736 18.6192C187.789 18.6192 189.081 16.9435 189.081 14.7092Z" fill="#64726F"/>
</svg>
