<svg width="104" height="18" viewBox="0 0 104 18" fill="none" xmlns="http://www.w3.org/2000/svg">
<path d="M86.3015 17.2151C86.3064 17.3374 86.365 17.4536 86.4654 17.5398C86.5659 17.6261 86.7006 17.6759 86.842 17.6793H89.4126C89.4834 17.6797 89.5536 17.6681 89.6192 17.6449C89.6847 17.6218 89.7443 17.5877 89.7946 17.5445C89.8448 17.5014 89.8847 17.45 89.9119 17.3935C89.9391 17.337 89.9531 17.2763 89.9531 17.2151V6.67304H89.9804L101.83 17.9248H102.51C102.645 17.9215 102.772 17.8741 102.868 17.7923C102.963 17.7104 103.019 17.6003 103.024 17.4842V0.988271C103.02 0.8659 102.962 0.749411 102.862 0.662537C102.763 0.575663 102.628 0.524942 102.487 0.520708H99.8815C99.7381 0.520708 99.6006 0.569969 99.4993 0.657654C99.3979 0.745339 99.3409 0.864266 99.3409 0.988271V11.1132H99.3137L87.5304 0.28188H86.8226C86.6879 0.284281 86.5593 0.330723 86.4626 0.411859C86.3659 0.492995 86.3083 0.602799 86.3015 0.71917V17.2151ZM67.6542 17.2151C67.6542 17.3382 67.7108 17.4563 67.8114 17.5433C67.9121 17.6304 68.0486 17.6793 68.1909 17.6793H79.6904C79.8327 17.6793 79.9692 17.6304 80.0698 17.5433C80.1705 17.4563 80.227 17.3382 80.227 17.2151V15.1968C80.223 15.0761 80.1647 14.9614 80.0644 14.8773C79.9642 14.7931 79.83 14.746 79.6904 14.7461H71.3137V10.4472H78.3137C78.456 10.4472 78.5925 10.3983 78.6932 10.3112C78.7938 10.2242 78.8504 10.1061 78.8504 9.98299V7.94791C78.8446 7.82638 78.7862 7.71118 78.6868 7.62517C78.5874 7.53917 78.4542 7.48867 78.3137 7.48371H71.3137V3.44719H79.6904C79.8327 3.44719 79.9692 3.39828 80.0698 3.31122C80.1705 3.22417 80.227 3.1061 80.227 2.98299V0.964725C80.221 0.845143 80.1618 0.732193 80.0618 0.649457C79.9618 0.566721 79.8287 0.520595 79.6904 0.520708H68.1715C68.0291 0.520708 67.8926 0.569614 67.792 0.656669C67.6913 0.743723 67.6348 0.861794 67.6348 0.984908L67.6542 17.2151ZM53.6231 17.6557C53.6618 17.7373 53.7283 17.8068 53.8138 17.8548C53.8992 17.9029 53.9996 17.9273 54.1015 17.9248H54.3853C54.4878 17.9276 54.5888 17.9033 54.6749 17.8552C54.761 17.8071 54.8282 17.7376 54.8676 17.6557L63.6565 1.17328C63.6995 1.10453 63.7203 1.02699 63.7166 0.948874C63.7129 0.870754 63.6849 0.79495 63.6355 0.729474C63.5861 0.663998 63.5171 0.611285 63.4359 0.576905C63.3547 0.542526 63.2643 0.527758 63.1742 0.534163H60.2459C60.1436 0.533986 60.0434 0.55968 59.9577 0.608087C59.8721 0.656494 59.8046 0.725503 59.7637 0.806628L54.3192 11.3453H54.1209L48.6765 0.806628C48.6355 0.725503 48.5681 0.656494 48.4824 0.608087C48.3967 0.55968 48.2966 0.533986 48.1942 0.534163H45.3009C45.2108 0.527758 45.1204 0.542526 45.0392 0.576905C44.958 0.611285 44.8891 0.663998 44.8397 0.729474C44.7903 0.79495 44.7623 0.870754 44.7586 0.948874C44.7549 1.02699 44.7756 1.10453 44.8187 1.17328L53.6231 17.6557ZM33.1676 11.823L35.9442 6.44094H36.0298L38.8648 11.823H33.1676ZM27.1009 17.6793H29.5665C29.7451 17.6827 29.9205 17.6375 30.0677 17.5499C30.215 17.4624 30.3267 17.337 30.387 17.1915L31.7753 14.5409H40.2531L41.6415 17.1915C41.6964 17.34 41.8067 17.4685 41.9553 17.5568C42.1038 17.6451 42.2821 17.6882 42.462 17.6793H44.9276C45.0175 17.6865 45.108 17.6723 45.1894 17.6384C45.2708 17.6045 45.34 17.5521 45.3895 17.4867C45.4391 17.4214 45.4671 17.3456 45.4707 17.2676C45.4743 17.1895 45.4532 17.112 45.4098 17.0435L36.6792 0.561073C36.6428 0.477453 36.5763 0.406169 36.4894 0.357722C36.4026 0.309275 36.3001 0.286226 36.197 0.291972H35.917C35.8145 0.288783 35.7132 0.312872 35.627 0.360991C35.5408 0.40911 35.4737 0.478943 35.4348 0.561073L26.6187 17.0435C26.5752 17.112 26.5542 17.1895 26.5578 17.2676C26.5613 17.3456 26.5894 17.4214 26.6389 17.4867C26.6885 17.5521 26.7577 17.6045 26.839 17.6384C26.9204 17.6723 27.0109 17.6865 27.1009 17.6793ZM0.030329 17.1175C0.00890293 17.1867 0.00698983 17.2593 0.0247511 17.3293C0.0425124 17.3992 0.0794255 17.4645 0.132393 17.5195C0.185361 17.5746 0.252837 17.6178 0.32914 17.6456C0.405444 17.6734 0.488347 17.685 0.570885 17.6793H3.122C3.24153 17.6746 3.35602 17.6363 3.448 17.5701C3.53998 17.5039 3.6044 17.4135 3.63144 17.3126L5.27644 8.01855H5.36199L10.3787 17.6524C10.4176 17.7345 10.4847 17.8043 10.5709 17.8525C10.6571 17.9006 10.7583 17.9247 10.8609 17.9215H11.3703C11.4733 17.9267 11.5756 17.9034 11.6623 17.855C11.7489 17.8067 11.8156 17.7357 11.8526 17.6524L16.8109 8.01855H16.8964L18.5687 17.3093C18.6061 17.4095 18.677 17.4979 18.7726 17.5631C18.8681 17.6284 18.9839 17.6677 19.1053 17.6759H21.6876C21.7694 17.6827 21.8519 17.6716 21.9275 17.6436C22.003 17.6156 22.0692 17.5716 22.12 17.5156C22.1707 17.4597 22.2044 17.3936 22.2178 17.3234C22.2313 17.2533 22.2241 17.1813 22.197 17.1142L18.8526 0.631712C18.8343 0.528585 18.7716 0.435237 18.6772 0.370366C18.5827 0.305495 18.4634 0.27389 18.3431 0.28188H17.8881C17.7888 0.275061 17.6894 0.294588 17.6033 0.337858C17.5171 0.381129 17.4483 0.446086 17.4059 0.524071L11.1837 12.0954H11.0981L4.87588 0.524071C4.82922 0.443891 4.75556 0.377826 4.66462 0.33459C4.57367 0.291353 4.46971 0.272975 4.36644 0.28188H3.91533C3.79211 0.274267 3.67026 0.308183 3.5753 0.376527C3.48034 0.44487 3.41963 0.542342 3.40588 0.648531L0.030329 17.1175Z" fill="#0B8470"/>
</svg>
