<svg width="45" height="22" viewBox="0 0 45 22" fill="none" xmlns="http://www.w3.org/2000/svg">
<path d="M43.1505 18.7038C41.5675 18.6985 40.0162 18.3198 38.6635 17.6085C37.3108 16.8972 36.208 15.8803 35.4738 14.6673C35.0849 15.738 34.526 16.7568 33.8133 17.6947C34.9323 18.9069 36.3521 19.886 37.9677 20.5597C39.5832 21.2334 41.3531 21.5843 43.1466 21.5865C43.5767 21.5686 43.9822 21.4082 44.2793 21.1386C44.5763 20.869 44.742 20.5109 44.742 20.1384C44.742 19.766 44.5763 19.4079 44.2793 19.1383C43.9822 18.8687 43.5767 18.7083 43.1466 18.6903L43.1505 18.7038ZM34.9371 8.57213C35.084 8.20959 35.2634 7.85756 35.4738 7.51927C36.2077 6.30596 37.3104 5.28885 38.6631 4.57755C40.0159 3.86625 41.5674 3.48772 43.1505 3.48275C43.5805 3.46481 43.9861 3.30442 44.2832 3.03481C44.5802 2.7652 44.7459 2.40707 44.7459 2.03465C44.7459 1.66223 44.5802 1.30409 44.2832 1.03448C43.9861 0.764874 43.5805 0.604478 43.1505 0.586544C41.3566 0.588723 39.5863 0.939962 37.9707 1.61424C36.355 2.28852 34.9355 3.26857 33.8171 4.48179C33.6305 4.68025 33.4555 4.8888 33.2844 5.09736C33.1133 5.30591 32.9421 5.54474 32.7866 5.77011C31.6978 7.38872 31.1273 9.22904 31.1338 11.1017C31.132 12.3505 30.7783 13.5802 30.1033 14.6841C29.3692 15.8962 28.2656 16.9115 26.912 17.6199C25.5585 18.3283 24.0067 18.7028 22.4246 18.7028C20.8426 18.7028 19.2908 18.3283 17.9372 17.6199C16.5837 16.9115 15.4801 15.8962 14.746 14.6841C14.3587 15.7554 13.7998 16.7744 13.0855 17.7115C14.2042 18.9236 15.6241 19.9022 17.2398 20.5748C18.8556 21.2474 20.6257 21.5966 22.4188 21.5966C24.2119 21.5966 25.982 21.2474 27.5978 20.5748C29.2135 19.9022 30.6334 18.9236 31.7521 17.7115C31.9388 17.513 32.1138 17.3045 32.281 17.0926C32.4483 16.8806 32.6233 16.6485 32.7788 16.4198C33.8686 14.8086 34.4418 12.9751 34.4394 11.1084C34.4385 10.2472 34.6055 9.39204 34.9333 8.57886L34.9371 8.57213ZM1.68324 3.4962C3.26389 3.50123 4.81314 3.87834 6.16485 4.58708C7.51655 5.29581 8.61971 6.30945 9.35602 7.51927C9.74253 6.44773 10.3015 5.42859 11.0166 4.49188C9.89787 3.27928 8.47814 2.29987 6.86253 1.62618C5.24691 0.952493 3.4768 0.601775 1.68324 0.599999C1.25318 0.617933 0.847595 0.778329 0.550564 1.04794C0.253533 1.31754 0.0878427 1.67568 0.0878427 2.0481C0.0878427 2.42052 0.253533 2.77866 0.550564 3.04827C0.847595 3.31787 1.25318 3.47827 1.68324 3.4962ZM14.2055 8.57213C14.3526 8.21024 14.5307 7.85831 14.7382 7.51927C15.4714 6.30615 16.5747 5.28988 17.9283 4.58075C19.282 3.87162 20.8343 3.49671 22.4169 3.49671C23.9994 3.49671 25.5518 3.87162 26.9054 4.58075C28.2591 5.28988 29.3623 6.30615 30.0955 7.51927C30.4803 6.44717 31.0394 5.42784 31.756 4.49188C30.6382 3.27866 29.2185 2.29898 27.6027 1.62565C25.9868 0.952314 24.2163 0.602652 22.4227 0.602652C20.6291 0.602652 18.8586 0.952314 17.2427 1.62565C15.6269 2.29898 14.2072 3.27866 13.0894 4.49188C12.9027 4.69034 12.7277 4.89889 12.5566 5.10745C12.3855 5.316 12.2182 5.55483 12.0627 5.7802C10.973 7.39266 10.3998 9.22721 10.4021 11.095C10.4033 11.9554 10.2349 12.8096 9.90436 13.6211C9.75497 13.9877 9.5716 14.3431 9.35602 14.6841C8.62115 15.8967 7.51821 16.9132 6.16568 17.6244C4.81315 18.3355 3.26217 18.7145 1.67935 18.7206C1.24929 18.7385 0.843706 18.8989 0.546675 19.1686C0.249644 19.4382 0.0839539 19.7963 0.0839539 20.1687C0.0839539 20.5411 0.249644 20.8993 0.546675 21.1689C0.843706 21.4385 1.24929 21.5989 1.67935 21.6168C3.47281 21.6146 5.24274 21.2636 6.85827 20.59C8.4738 19.9163 9.8936 18.9372 11.0127 17.7249C11.1994 17.5265 11.3744 17.3179 11.5455 17.106C11.7166 16.8941 11.8838 16.662 12.0432 16.4333C13.1301 14.8211 13.7018 12.9881 13.6999 11.1219C13.6984 10.2603 13.8667 9.40489 14.1977 8.59231" fill="#0B8470"/>
</svg>
